# xmcd CD database file
#
# Track frame offsets:
#	150
#	7999
#	27503
#	49190
#	74539
#	95277
#	115135
#	134158
#	153138
#	180230
#	199452
#	219843
#	239529
#	256809
#	275295
#	295515
#
# Disc length: 4194 seconds
#
# Revision: 1
# Processed by: cddbd v1.5.2PL0 Copyright (c) Steve Scherf et al.
# Submitted via: CDex 1.70beta2
#
DISCID=df106010
DTITLE=DREAMS COME TRUE - THE SOUL
DYEAR=2001
DGENRE=Other
TTITLE0=A theme of WONDERLAND
TTITLE1=うれしい!たのしい!大好き! (‘EVERLASTING’ VERSION) 
TTITLE2=あの夏の花火
TTITLE3=決戦は金曜日 (Version of “THE DYNAMITES”) 
TTITLE4=薬指の決心
TTITLE5=笑顔の行方 (ORIGINAL VERSION) 
TTITLE6=あはは
TTITLE7=7月7日、晴れ
TTITLE8=LAT.43°N ～forty-three degrees north latitude～ 
TTITLE9=なんて恋したんだろ
TTITLE10=Ring!Ring!Ring! (S・H・H VERSION) 
TTITLE11=うれしはずかし朝帰り
TTITLE12=あなたにサラダ
TTITLE13=晴れたらいいね
TTITLE14=よろこびのうた
TTITLE15=朝がまた来る
EXTD=YEAR: 2001
EXTT0=
EXTT1=
EXTT2=
EXTT3=
EXTT4=
EXTT5=
EXTT6=
EXTT7=
EXTT8=
EXTT9=
EXTT10=
EXTT11=
EXTT12=
EXTT13=
EXTT14=
EXTT15=
PLAYORDER=
